P2
# Tiny test image
4 3
255
100 150 200 250
50 75 100 125
200 175 150 125
